# xmcd CD database file
#
# Track frame offsets:
#	150
#	12250
#	22442
#	32745
#	46830
#	58785
#	73637
#	89382
#	102500
#	112907
#	127505
#	138560
#	150235
#	162427
#	173712
#	185012
#
# Disc length: 2608 seconds
#
# Revision: 2
# Processed by: cddbd v1.4PL0 Copyright (c) Steve Scherf et al.
# Submitted via: Feurio! 1.66 - http://www.feurio.com
#
DISCID=d10a2e10
DTITLE=Various Artist - The Very Best Of Country Hits, CD2
DYEAR=1900
DGENRE=Country
TTITLE0=Stonewall Jackson - I Love You Because
TTITLE1=Don Williams - Take My Hand For A While
TTITLE2=Billie Joe Spears - I'm Gonna Be A Country Girl Again
TTITLE3=Willie Nelson - So Much To Do
TTITLE4=George Jones - I Can't Escape From You
TTITLE5=Jeannie C. Riley - Harper Valley PTA
TTITLE6=Johnny Russel - Luckenbach Texas
TTITLE7=Gene Autry - Under Fiesta Stars
TTITLE8=Patsy Cline - I Love You Honey
TTITLE9=Pozo Seco Singers - Long Walk From Childhood
TTITLE10=Roy Drusky - I Can't Help It If I'm Still In Love With You
TTITLE11=Donna Fargo - The Happiest Girl In The Whole USA
TTITLE12=George Jones - Take Me
TTITLE13=Willie Nelson - Suffering In Silence
TTITLE14=Patti Page - You Belong To Me
TTITLE15=Johnny Cash - Fools Hall Of Fame
EXTD=
EXTT0=
EXTT1=
EXTT2=
EXTT3=
EXTT4=
EXTT5=
EXTT6=
EXTT7=
EXTT8=
EXTT9=
EXTT10=
EXTT11=
EXTT12=
EXTT13=
EXTT14=
EXTT15=
PLAYORDER=
